HIERARCHY
ROOT Hips
{
	OFFSET -0.001795 -0.223333 0.028219
	CHANNELS 6 Xposition Yposition Zposition Zrotation Yrotation Xrotation 
	JOINT LeftUpLeg
	{
		OFFSET 0.069520 -0.091406 -0.006815
		CHANNELS 3 Zrotation Yrotation Xrotation
		JOINT LeftLeg
		{
			OFFSET 0.034277 -0.375199 -0.004496
			CHANNELS 3 Zrotation Yrotation Xrotation
			JOINT LeftFoot
			{
				OFFSET -0.013596 -0.397961 -0.043693
				CHANNELS 3 Zrotation Yrotation Xrotation
				JOINT LeftToe
				{
					OFFSET 0.026358 -0.055791 0.119288
					CHANNELS 3 Zrotation Yrotation Xrotation
					End Site
					{
						OFFSET 0.000000 0.000000 0.000000
					}
				}
			}
		}
	}
	JOINT RightUpLeg
	{
		OFFSET -0.067670 -0.090522 -0.004320
		CHANNELS 3 Zrotation Yrotation Xrotation
		JOINT RightLeg
		{
			OFFSET -0.038290 -0.382569 -0.008850
			CHANNELS 3 Zrotation Yrotation Xrotation
			JOINT RightFoot
			{
				OFFSET 0.015774 -0.398415 -0.042312
				CHANNELS 3 Zrotation Yrotation Xrotation
				JOINT RightToe
				{
					OFFSET -0.025372 -0.048144 0.123348
					CHANNELS 3 Zrotation Yrotation Xrotation
					End Site
					{
						OFFSET 0.000000 0.000000 0.000000
					}
				}
			}
		}
	}
	JOINT Spine
	{
		OFFSET -0.002533 0.108963 -0.026696
		CHANNELS 3 Zrotation Yrotation Xrotation
		JOINT Spine1
		{
			OFFSET 0.005487 0.135180 0.001092
			CHANNELS 3 Zrotation Yrotation Xrotation
			JOINT Spine2
			{
				OFFSET 0.001457 0.052922 0.025425
				CHANNELS 3 Zrotation Yrotation Xrotation
				JOINT Neck
				{
					OFFSET -0.002778 0.213870 -0.042857
					CHANNELS 3 Zrotation Yrotation Xrotation
					JOINT Head
					{
						OFFSET 0.005152 0.064970 0.051349
						CHANNELS 3 Zrotation Yrotation Xrotation
						End Site
						{
							OFFSET 0.000000 0.000000 0.000000
						}
					}
				}
				JOINT LeftShoulder
				{
					OFFSET 0.078845 0.121749 -0.034090
					CHANNELS 3 Zrotation Yrotation Xrotation
					JOINT LeftArm
					{
						OFFSET 0.090977 0.030469 -0.008868
						CHANNELS 3 Zrotation Yrotation Xrotation
						JOINT LeftForeArm
						{
							OFFSET 0.259612 -0.012772 -0.027456
							CHANNELS 3 Zrotation Yrotation Xrotation
							JOINT LeftHand
							{
								OFFSET 0.249234 0.008986 -0.001171
								CHANNELS 3 Zrotation Yrotation Xrotation
								End Site
								{
									OFFSET 0.000000 0.000000 0.000000
								}
							}
						}
					}
				}
				JOINT RightShoulder
				{
					OFFSET -0.081759 0.118833 -0.038615
					CHANNELS 3 Zrotation Yrotation Xrotation
					JOINT RightArm
					{
						OFFSET -0.096012 0.032551 -0.009143
						CHANNELS 3 Zrotation Yrotation Xrotation
						JOINT RightForeArm
						{
							OFFSET -0.253742 -0.013329 -0.021401
							CHANNELS 3 Zrotation Yrotation Xrotation
							JOINT RightHand
							{
								OFFSET -0.255298 0.007772 -0.005559
								CHANNELS 3 Zrotation Yrotation Xrotation
								End Site
								{
									OFFSET 0.000000 0.000000 0.000000
								}
							}
						}
					}
				}
			}
		}
	}
}
MOTION
Frames: 12
Frame Time: 0.050000
0.006528 0.958399 -0.052174 -2.236474 5.070457 9.386489 6.124680 -0.408185 -3.274698 5.280362 0.474265 -13.220995 -0.185087 7.137650 19.144989 0.000000 0.000000 0.000000 -4.228270 0.757723 -9.650309 -2.056262 0.091717 -2.372275 -0.665445 -6.164715 14.725045 0.000000 0.000000 0.000000 -0.382758 0.089639 -2.152858 2.469891 -0.790389 -5.681772 3.423084 -7.459704 -3.647418 -10.331680 6.770616 -13.593331 0.000000 0.000000 0.000000 1.714590 -0.557220 0.287244 -23.157888 -48.670612 6.736393 52.809852 -6.297268 -1.373781 0.000000 0.000000 0.000000 4.467787 2.860199 0.265639 62.607241 5.616312 -2.784457 3.428470 20.203177 0.913382 0.000000 0.000000 0.000000 
0.006600 0.959232 -0.052985 -2.126436 4.784288 9.547431 5.993476 -0.404421 -3.269751 5.519783 0.471763 -13.097471 -0.073288 7.111936 18.653491 0.000000 0.000000 0.000000 -3.946337 0.802090 -10.075564 -2.542820 0.139205 -2.274731 -0.330322 -5.461859 14.186100 0.000000 0.000000 0.000000 -0.553675 0.089248 -2.001463 2.605472 -0.861221 -5.486656 4.280214 -8.440941 -3.896977 -11.361931 7.261853 -14.152249 0.000000 0.000000 0.000000 3.820868 -1.944811 0.773657 -12.884249 -53.003433 3.677026 50.499494 7.397096 4.712954 0.000000 0.000000 0.000000 4.034653 3.278381 0.395403 63.211538 6.267862 -2.636598 3.156239 21.818307 0.863015 0.000000 0.000000 0.000000 
0.006839 0.959790 -0.053683 -2.133655 4.446419 9.654426 5.735041 -0.394834 -3.224342 5.690994 0.488202 -13.251868 -0.110557 7.133649 19.100317 0.000000 0.000000 0.000000 -3.740048 0.826821 -10.222052 -2.760907 0.162458 -2.183631 -0.032292 -5.000038 14.309808 0.000000 0.000000 0.000000 -0.639194 0.098190 -2.186757 3.108151 -1.081721 -5.352511 4.416975 -8.393362 -4.063192 -12.043862 7.581842 -14.879380 0.000000 0.000000 0.000000 5.327368 -2.863149 1.073270 -4.435504 -56.461641 0.383263 47.300546 14.864063 7.280937 0.000000 0.000000 0.000000 4.013762 3.176448 0.353387 63.423779 6.733568 -2.417830 2.785080 24.226981 0.853069 0.000000 0.000000 0.000000 
0.007286 0.959649 -0.054673 -1.984934 4.357863 9.566992 5.607654 -0.398111 -3.408045 5.592252 0.445158 -12.681331 -0.139227 6.904516 18.468805 0.000000 0.000000 0.000000 -3.713938 0.842366 -10.436565 -2.769803 0.213103 -1.397797 -0.171438 -5.069502 13.557095 0.000000 0.000000 0.000000 -0.554523 0.095393 -2.148807 3.233280 -1.156763 -5.033152 4.385025 -8.403240 -3.895965 -11.508418 7.210215 -15.465217 0.000000 0.000000 0.000000 6.339160 -3.096729 1.144293 0.520295 -59.284696 -1.877106 47.446090 17.282083 8.240283 0.000000 0.000000 0.000000 4.233097 3.778284 0.536344 63.813759 7.359310 -2.116228 3.131437 26.581314 0.990708 0.000000 0.000000 0.000000 
0.007637 0.959219 -0.056225 -1.905366 4.459414 9.354529 5.658447 -0.393027 -3.301039 5.106989 0.432416 -12.584769 -0.265191 6.680729 18.267346 0.000000 0.000000 0.000000 -3.918090 0.811384 -10.156090 -2.502886 0.196308 -1.268093 -0.455924 -5.464887 13.088655 0.000000 0.000000 0.000000 -0.586454 0.082456 -1.755712 3.715672 -1.396334 -4.520700 4.297932 -8.139766 -4.448297 -11.715413 7.354182 -15.226724 0.000000 0.000000 0.000000 6.745592 -4.253325 1.514765 3.199010 -60.600796 -3.288068 51.023080 14.125570 7.521408 0.000000 0.000000 0.000000 5.047126 4.204397 0.586220 63.535380 7.718380 -1.754966 4.802787 30.558204 1.528617 0.000000 0.000000 0.000000 
0.008020 0.958106 -0.058288 -1.964718 4.668758 9.705003 5.717493 -0.436439 -4.154102 4.994457 0.378296 -11.805736 -0.780817 5.759266 17.584473 0.000000 0.000000 0.000000 -3.959060 0.855310 -10.911546 -2.218675 0.198863 -0.760818 -0.610250 -5.566369 12.473055 0.000000 0.000000 0.000000 -0.482160 0.073034 -1.549460 3.915709 -1.475857 -4.542251 4.206858 -7.902380 -4.692533 -10.578006 6.620752 -16.169341 0.000000 0.000000 0.000000 7.067473 -4.741687 1.683744 2.716557 -62.851941 -3.196192 57.538917 8.637172 5.882884 0.000000 0.000000 0.000000 5.353402 5.116014 0.910971 63.622472 8.758563 -1.088348 6.352912 34.251964 2.159507 0.000000 0.000000 0.000000 
0.008324 0.957875 -0.060518 -1.815869 4.806939 9.730152 5.887080 -0.455045 -4.511535 4.373351 0.343803 -11.295865 -0.887381 5.407075 16.913025 0.000000 0.000000 0.000000 -4.220290 0.854266 -11.203970 -2.042638 0.214874 -0.165879 -0.844255 -5.900977 12.103622 0.000000 0.000000 0.000000 -0.570537 0.057627 -1.025096 4.351705 -1.670382 -4.404197 3.893456 -7.158890 -5.170966 -9.869171 6.292653 -15.622412 0.000000 0.000000 0.000000 6.512870 -5.759186 2.039396 0.498630 -64.362294 -2.240103 63.588604 0.799584 2.052270 0.000000 0.000000 0.000000 6.506350 6.022898 1.187875 62.904918 9.622457 -0.361813 6.915914 38.110183 2.653595 0.000000 0.000000 0.000000 
0.008606 0.957404 -0.062291 -1.740070 5.103196 10.049124 5.951790 -0.483974 -5.028953 4.082625 0.319542 -10.898516 -1.634247 4.236551 16.619343 0.000000 0.000000 0.000000 -4.246521 0.886581 -11.851537 -1.978098 0.232985 0.277133 -1.017503 -6.031730 11.448173 0.000000 0.000000 0.000000 -0.682587 0.061184 -1.007092 4.670026 -1.814599 -4.269357 3.634891 -6.850233 -5.230879 -8.806395 5.651665 -16.846412 0.000000 0.000000 0.000000 6.261672 -6.462476 2.277321 -2.106681 -66.054424 -0.899190 69.103014 -4.768957 -1.357393 0.000000 0.000000 0.000000 6.692297 7.139938 1.664932 63.112328 11.552731 0.773635 6.037224 41.163035 2.621204 0.000000 0.000000 0.000000 
0.008805 0.957442 -0.063203 -1.542140 5.307902 10.312801 5.968146 -0.506215 -5.434848 3.660689 0.319459 -10.870915 -1.648767 4.187419 16.460989 0.000000 0.000000 0.000000 -4.460732 0.876074 -11.945303 -2.044273 0.249303 0.431603 -1.071868 -6.083650 11.353802 0.000000 0.000000 0.000000 -0.670522 0.069876 -1.273852 4.584926 -1.803937 -3.945817 3.596448 -6.403292 -5.310959 -8.351028 5.435961 -16.808537 0.000000 0.000000 0.000000 5.309294 -7.397135 2.590797 -6.074193 -67.597508 1.348604 73.616875 -9.882073 -5.173925 0.000000 0.000000 0.000000 6.974677 8.288762 2.160535 62.807767 13.606822 1.990170 3.560135 42.165296 1.859733 0.000000 0.000000 0.000000 
0.009032 0.957875 -0.063556 -1.403973 5.610972 10.524326 5.755031 -0.510329 -5.433973 3.752446 0.346187 -11.367785 -2.121500 3.735990 17.045547 0.000000 0.000000 0.000000 -4.740571 0.851251 -11.897896 -1.961993 0.227639 0.189907 -1.236912 -6.504989 11.976795 0.000000 0.000000 0.000000 -0.740396 0.078139 -1.464333 4.752359 -1.857701 -4.126200 3.239272 -6.399952 -5.082682 -8.180115 5.330482 -17.672325 0.000000 0.000000 0.000000 5.100459 -8.121256 2.823846 -9.020657 -68.639222 3.153572 76.148279 -13.503683 -8.151507 0.000000 0.000000 0.000000 7.276529 9.567596 2.696462 61.898554 15.977942 3.284144 0.844368 42.205091 0.925261 0.000000 0.000000 0.000000 
0.009196 0.958590 -0.063878 -1.359294 6.095896 10.847888 5.652741 -0.528476 -5.651536 3.739779 0.349564 -11.461697 -2.457569 3.321266 17.084810 0.000000 0.000000 0.000000 -4.634404 0.858835 -11.979602 -2.090060 0.221726 -0.194364 -1.297654 -6.601473 12.202638 0.000000 0.000000 0.000000 -0.811237 0.092003 -1.834193 4.923641 -1.935716 -4.032200 3.169271 -6.368870 -5.300880 -7.955957 5.214149 -18.023737 0.000000 0.000000 0.000000 4.854871 -9.173108 3.166573 -11.133249 -69.003106 4.445932 76.615619 -15.716878 -9.943082 0.000000 0.000000 0.000000 7.702061 11.067928 3.331015 60.338176 18.206154 4.451846 -2.028887 41.510460 -0.065456 0.000000 0.000000 0.000000 
0.009315 0.959020 -0.064447 -1.268369 6.541431 11.242641 5.615569 -0.555633 -6.069026 3.719938 0.345234 -11.416272 -2.263587 3.708911 17.159034 0.000000 0.000000 0.000000 -4.701752 0.862845 -12.245708 -2.047174 0.224085 -0.088458 -1.425357 -6.802104 12.309122 0.000000 0.000000 0.000000 -0.860456 0.106475 -2.264864 5.096765 -1.980238 -4.304892 2.973432 -6.180681 -5.334484 -7.680300 5.086510 -18.578233 0.000000 0.000000 0.000000 4.906998 -9.933496 3.412667 -11.627646 -69.588799 4.702017 74.604585 -17.664991 -11.108453 0.000000 0.000000 0.000000 7.540265 12.143360 3.855238 58.640093 20.821123 5.694076 -4.384353 41.606515 -0.834043 0.000000 0.000000 0.000000 
